<?xml version="1.0" encoding="utf-8"?>
<!-- Generator: Adobe Illustrator 25.2.1, SVG Export Plug-In . SVG Version: 6.00 Build 0)  -->
<svg version="1.1" id="Layer_1" xmlns="http://www.w3.org/2000/svg" xmlns:xlink="http://www.w3.org/1999/xlink" x="0px" y="0px"
	 viewBox="0 0 448 512" style="enable-background:new 0 0 448 512;" xml:space="preserve">
<style type="text/css">
	.st0{fill:#D21533;}
	.st1{fill:#FFFFFF;}
</style>
<rect x="77.8" y="107" transform="matrix(-1 -1.224647e-16 1.224647e-16 -1 439.6693 528)" class="st0" width="284.1" height="314"/>
<path class="st1" d="M48,32h352c26.5,0,48,21.5,48,48v352c0,26.5-21.5,48-48,48H48c-26.5,0-48-21.5-48-48V80C0,53.5,21.5,32,48,32z
	 M188.5,387.5l123-123c4.7-4.7,4.7-12.3,0-17l-123-123c-7.6-7.6-20.5-2.2-20.5,8.5V379C168,389.7,180.9,395.1,188.5,387.5
	L188.5,387.5z"/>
</svg>
